<svg xmlns="http://www.w3.org/2000/svg" viewBox="0 0 24 24" width="32" height="32" role="img" aria-label="Delete (recycling bin)">
  <!-- Bin body & lid -->
  <g fill="#dc2626">
    <rect x="3" y="3" width="18" height="3" rx="0.8"/>
    <rect x="5" y="6.5" width="14" height="13" rx="1.6"/>
  </g>

  <!-- Recycle symbol -->
  <g fill="#fff">
    <path d="M9.2 10.9c-.15-.46-.15-.95.08-1.36.36-.8 1.18-1.25 2.06-1.12l-.32.98c-.55-.08-1.05.07-1.33.47-.18.26-.24.62-.07.94l-.42.09z"/>
    <path d="M14.8 13.1c.15.46.15.95-.08 1.36-.36.8-1.18 1.25-2.06 1.12l.32-.98c.55.08 1.05-.07 1.33-.47.18-.26.24-.62.07-.94l.42-.09z"/>
    <path d="M12 9.9c.86.02 1.6.43 2.1 1.05.7.88.66 2.06-.08 2.8l-.7-.64c.46-.46.49-1.15.08-1.61-.29-.31-.72-.45-1.16-.4l-.24-.49z"/>
  </g>
</svg>
